<svg width="18" height="18" viewBox="0 0 18 18" fill="none" xmlns="http://www.w3.org/2000/svg">
<path fill-rule="evenodd" clip-rule="evenodd" d="M11.1213 9.00002L16.8085 14.6872C17.0405 14.9193 17.1761 15.1401 17.2458 15.3701C17.3154 15.6 17.3154 15.8351 17.2458 16.065C17.1761 16.2949 17.0405 16.5158 16.8085 16.7478L16.7478 16.8086C16.5158 17.0406 16.2949 17.1761 16.065 17.2458C15.835 17.3155 15.5999 17.3155 15.37 17.2458C15.1401 17.1761 14.9192 17.0406 14.6872 16.8086L8.99996 11.1213L3.31274 16.8086C3.08072 17.0406 2.85985 17.1761 2.62993 17.2458C2.40001 17.3155 2.16488 17.3155 1.93497 17.2458C1.70505 17.1761 1.48417 17.0406 1.25216 16.8086L1.19142 16.7478C0.959404 16.5158 0.823856 16.2949 0.75417 16.065C0.684483 15.8351 0.684483 15.6 0.75417 15.3701C0.823856 15.1401 0.959404 14.9193 1.19142 14.6872L6.87864 9.00002L1.19142 3.3128C0.959404 3.08079 0.823856 2.85991 0.75417 2.62999C0.684483 2.40008 0.684483 2.16494 0.75417 1.93503C0.823856 1.70511 0.959404 1.48423 1.19142 1.25222L1.25216 1.19148C1.48417 0.959465 1.70505 0.823918 1.93497 0.754231C2.16488 0.684544 2.40001 0.684544 2.62993 0.754231C2.85985 0.823918 3.08072 0.959465 3.31274 1.19148L8.99996 6.8787L14.6872 1.19148C14.9192 0.959465 15.1401 0.823918 15.37 0.754231C15.5999 0.684544 15.835 0.684544 16.065 0.754231C16.2949 0.823918 16.5158 0.959465 16.7478 1.19148L16.8085 1.25222C17.0405 1.48423 17.1761 1.70511 17.2458 1.93503C17.3154 2.16494 17.3154 2.40008 17.2458 2.62999C17.1761 2.85991 17.0405 3.08079 16.8085 3.3128L11.1213 9.00002Z" fill="#333333"/>
</svg>
