<svg width="33" height="46" viewBox="0 0 33 46" fill="none" xmlns="http://www.w3.org/2000/svg">
<path d="M16.5 0C7.40185 0 0 7.47339 0 16.6594C0 28.0595 14.7659 44.7955 15.3946 45.5024C15.9851 46.1665 17.016 46.1653 17.6054 45.5024C18.2341 44.7955 33 28.0595 33 16.6594C32.9998 7.47339 25.5981 0 16.5 0Z" fill="#FFDB2D"/>
<path d="M24.9812 18.4186C24.6504 18.2435 24.346 18.0309 24.0218 17.8433C23.9424 17.7995 23.9159 17.7557 23.9291 17.6682C24.035 16.9866 24.1144 16.305 24.1475 15.6234C24.174 15.0731 23.949 14.6291 23.4659 14.3227C21.5271 13.0908 19.595 11.859 17.6363 10.6521C16.7099 10.083 15.7174 10.0768 14.7976 10.6458C12.8323 11.8527 10.8869 13.0971 8.94814 14.3352C8.48495 14.6291 8.25997 15.0669 8.27982 15.5984C8.30629 16.2925 8.39231 16.9866 8.49819 17.6744C8.51142 17.7745 8.48495 17.8245 8.39893 17.8745C8.06146 18.0746 7.72399 18.281 7.38652 18.4811C6.35426 19.1064 5.90431 20.1319 6.18222 21.2638C7.40637 26.185 10.2848 30.012 14.7513 32.7759C15.7108 33.37 16.7232 33.37 17.6893 32.7822C20.9382 30.8062 23.3931 28.1736 25.0011 24.8406C25.0408 24.7593 25.107 24.6905 25.1202 24.5967C25.1665 24.2966 24.9151 24.0527 24.5445 24.0527C22.3013 24.0527 20.0582 24.0527 17.815 24.0527C17.5834 24.0527 17.418 24.134 17.2856 24.3153C17.0011 24.7218 16.6768 25.1032 16.3394 25.4659C16.207 25.6098 16.207 25.6098 16.0747 25.4659C14.5329 23.8026 13.5404 21.8891 13.097 19.713C13.0772 19.6192 13.097 19.5692 13.1831 19.5191C14.1558 18.9126 15.1285 18.2998 16.1012 17.6869C16.174 17.6432 16.2269 17.6307 16.3063 17.6807C17.279 18.2998 18.2583 18.9126 19.2376 19.5191C19.3104 19.5692 19.3369 19.6067 19.317 19.7005C19.1979 20.2945 19.0325 20.8698 18.8274 21.4389C18.6818 21.8516 18.8936 22.1267 19.3501 22.1267C20.389 22.1267 21.4213 22.1267 22.4601 22.1267C23.5123 22.1267 24.5644 22.1267 25.6165 22.1267C25.8944 22.1267 26.0598 22.0017 26.1326 21.7515C26.1723 21.6202 26.1988 21.4889 26.2385 21.3638C26.6156 20.0819 26.0003 18.9688 24.9812 18.4186ZM21.461 25.072C21.4941 25.0157 21.5271 24.9719 21.6132 24.9719C22.3477 24.9782 23.0888 24.9719 23.8299 24.9719C23.8365 25.0407 23.8034 25.072 23.7836 25.1095C22.2352 27.9797 20.0052 30.2684 17.14 32.0068C16.5445 32.3695 15.9159 32.3757 15.327 32.013C11.0391 29.3804 8.28644 25.7223 7.12846 21.0074C6.95641 20.2945 7.24095 19.6567 7.89603 19.2627C8.1541 19.1064 8.40555 18.9563 8.68346 18.7875C8.78933 19.2815 8.88859 19.7568 9.01431 20.2257C9.6297 22.5394 10.5693 24.7281 12.0317 26.6853C12.9118 27.8609 13.9572 28.8802 15.241 29.6681C15.896 30.0683 16.5313 30.0683 17.1864 29.6681C18.5759 28.8176 19.681 27.6921 20.6074 26.4039C20.9118 25.9787 21.2029 25.5347 21.461 25.072ZM22.8241 18.3873C22.652 19.294 22.4337 20.1945 22.1558 21.0824C22.1227 21.1762 22.0896 21.2137 21.9771 21.2137C21.3088 21.2075 20.6405 21.2137 19.9523 21.2137C20.0912 20.7385 20.217 20.282 20.303 19.8068C20.3758 19.3941 20.2434 19.0501 19.8795 18.8188C18.8472 18.1559 17.8084 17.5056 16.7695 16.8615C16.4188 16.6427 16.035 16.6427 15.6843 16.8553C14.6388 17.4993 13.5933 18.1559 12.5544 18.8188C12.2037 19.0439 12.0582 19.3878 12.1309 19.7818C12.5941 22.1892 13.6926 24.3091 15.413 26.1413C15.8762 26.6353 16.5577 26.6353 17.0209 26.1475C17.3386 25.8099 17.6429 25.4597 17.9209 25.0907C17.987 25.0032 18.0532 24.9719 18.1657 24.9719C18.9002 24.9782 19.6347 24.9719 20.3758 24.9719C20.3758 24.9907 20.3824 25.0094 20.3758 25.022C19.4957 26.4414 18.4304 27.7108 16.9945 28.6738C16.8555 28.7676 16.7033 28.8552 16.5577 28.9427C16.3261 29.0865 16.0945 29.0803 15.863 28.9427C14.9299 28.3924 14.1293 27.6983 13.4345 26.8979C12.1111 25.3909 11.2046 23.665 10.5362 21.8266C10.1194 20.6947 9.82159 19.5316 9.59661 18.356C9.57676 18.2497 9.6297 18.2185 9.70249 18.1684C10.9597 17.4118 12.217 16.6489 13.4808 15.8923C14.2682 15.417 15.0623 14.9418 15.8431 14.4665C16.1078 14.304 16.3526 14.304 16.6173 14.4665C18.6421 15.6922 20.6735 16.9178 22.705 18.1372C22.8042 18.206 22.8439 18.2622 22.8241 18.3873ZM22.8638 17.1429C20.9515 15.9923 19.0325 14.8355 17.1202 13.6849C16.5247 13.3222 15.9225 13.3285 15.327 13.6849C13.4146 14.8355 11.5089 15.9861 9.59661 17.1367C9.54368 17.1679 9.49074 17.1992 9.41134 17.2492C9.37163 16.8865 9.33193 16.5426 9.29885 16.2049C9.279 16.0236 9.279 15.836 9.25915 15.6547C9.22606 15.3795 9.34517 15.1857 9.59 15.0293C11.2906 13.96 12.9912 12.8845 14.6917 11.8089C14.8836 11.6901 15.0755 11.5651 15.2674 11.4462C15.8894 11.0711 16.5313 11.0585 17.1467 11.4462C19.059 12.6406 20.9581 13.8475 22.8638 15.0543C23.0821 15.1919 23.1814 15.3733 23.1682 15.6171C23.1351 16.1487 23.0821 16.6739 23.0094 17.2054C22.9366 17.2117 22.9035 17.1679 22.8638 17.1429ZM25.3055 21.1325C25.2856 21.1887 25.2658 21.2137 25.1996 21.2137C24.518 21.2137 23.8299 21.2137 23.1351 21.2137C23.3799 20.4133 23.585 19.6129 23.7438 18.7938C23.8497 18.825 23.9357 18.8938 24.0218 18.9438C24.2137 19.0564 24.4056 19.169 24.5908 19.2878C25.2525 19.688 25.5305 20.4133 25.3055 21.1325Z" fill="#333333"/>
</svg>
