<?xml version="1.0" encoding="UTF-8" standalone="no"?>
<svg
   xmlns:dc="http://purl.org/dc/elements/1.1/"
   xmlns:cc="http://creativecommons.org/ns#"
   xmlns:rdf="http://www.w3.org/1999/02/22-rdf-syntax-ns#"
   xmlns:svg="http://www.w3.org/2000/svg"
   xmlns="http://www.w3.org/2000/svg"
   xmlns:sodipodi="http://sodipodi.sourceforge.net/DTD/sodipodi-0.dtd"
   xmlns:inkscape="http://www.inkscape.org/namespaces/inkscape"
   width="300.29999"
   height="366"
   viewBox="0 0 300.29999 366"
   fill="none"
   version="1.1"
   id="svg4"
   sodipodi:docname="logo_white_blur.svg"
   inkscape:version="1.0 (4035a4fb49, 2020-05-01)">
  <metadata
     id="metadata10">
    <rdf:RDF>
      <cc:Work
         rdf:about="">
        <dc:format>image/svg+xml</dc:format>
        <dc:type
           rdf:resource="http://purl.org/dc/dcmitype/StillImage" />
        <dc:title></dc:title>
      </cc:Work>
    </rdf:RDF>
  </metadata>
  <defs
     id="defs8">
    <filter
       inkscape:collect="always"
       style="color-interpolation-filters:sRGB"
       id="filter839"
       x="-0.069303431"
       width="1.1386069"
       y="-0.057658501"
       height="1.115317">
      <feGaussianBlur
         inkscape:collect="always"
         stdDeviation="1.2685175"
         id="feGaussianBlur841" />
    </filter>
  </defs>
  <sodipodi:namedview
     inkscape:bbox-nodes="true"
     inkscape:snap-bbox="true"
     inkscape:snap-page="true"
     inkscape:document-rotation="0"
     pagecolor="#ffffff"
     bordercolor="#666666"
     borderopacity="1"
     objecttolerance="10"
     gridtolerance="10"
     guidetolerance="10"
     inkscape:pageopacity="0"
     inkscape:pageshadow="2"
     inkscape:window-width="1920"
     inkscape:window-height="1058"
     id="namedview6"
     showgrid="false"
     inkscape:zoom="0.6950158"
     inkscape:cx="153.41296"
     inkscape:cy="119.91532"
     inkscape:window-x="1912"
     inkscape:window-y="-8"
     inkscape:window-maximized="1"
     inkscape:current-layer="svg4" />
  <path
     transform="matrix(6.0085058,0,0,6.2114362,-2.7731835,0.20378378)"
     d="m 44.452235,21.863637 c -0.7178,-0.402 -1.3781,-0.8901 -2.0815,-1.3207 -0.1723,-0.1005 -0.2297,-0.201 -0.201,-0.402 0.2297,-1.5647 0.4019,-3.1295 0.4737,-4.6942 0.0574,-1.2633 -0.4307,-2.2825 -1.4786,-2.98597 -4.2062,-2.8280301 -8.398,-5.6560503 -12.6472,-8.4266623 -2.0098,-1.306349 -4.1631,-1.320703 -6.1585,-0.014354 -4.2636,2.770606 -8.4841,5.6273462 -12.6902392,8.4697363 -1.00488,0.67475 -1.49297,1.67955 -1.4499,2.89985 0.05742,1.5934 0.24405,3.1869 0.47373,4.766 0.02871,0.2297 -0.02871,0.3445 -0.21533,0.4594 -0.73213,0.4593 -1.46426,0.9331 -2.19639,1.3924 -2.23946,1.4356 -3.215625,3.7899 -2.6127,6.3882 2.65577,11.2978 8.9004292,20.0833 18.5903292,26.4285 2.0816,1.3637 4.278,1.3637 6.3739,0.0143 7.0485,-4.5363 12.3744,-10.58 15.8628,-18.2314 0.0861,-0.1867 0.2297,-0.3446 0.2584,-0.5599 0.1005,-0.6891 -0.4451,-1.2489 -1.249,-1.2489 -4.8665,0 -9.733,0 -14.5995,0 -0.5024,0 -0.8613,0.1866 -1.1484,0.6029 -0.6173,0.9331 -1.3207,1.8088 -2.0529,2.6414 -0.2871,0.3302 -0.2871,0.3302 -0.5742,0 -3.3448,-3.8186 -5.4981,-8.2113 -6.4599,-13.207 -0.0431,-0.2154 -10e-5,-0.3302 0.1866,-0.4451 2.1102,-1.3924 4.2205,-2.7993 6.3307,-4.2061 0.158,-0.1005 0.2728,-0.1292 0.4451,-0.0144 2.1102,1.4212 4.2348,2.8281 6.3594,4.2205 0.1579,0.1149 0.2154,0.201 0.1723,0.4163 -0.2584,1.3638 -0.6173,2.6845 -1.0623,3.9909 -0.3158,0.9474 0.1436,1.5791 1.1341,1.5791 2.2538,0 4.4932,0 6.7471,0 2.2825,0 4.565,0 6.8475,0 0.603,0 0.9618,-0.2871 1.1197,-0.8614 0.0862,-0.3014 0.1436,-0.6029 0.2297,-0.89 0.8183,-2.9429 -0.5168,-5.4981 -2.7275,-6.7614 z m -7.6371,15.2742 c 0.0718,-0.1292 0.1435,-0.2297 0.3302,-0.2297 1.5934,0.0144 3.2012,0 4.809,0 0.0144,0.1579 -0.0574,0.2297 -0.1004,0.3158 -3.3592,6.5892 -8.197,11.8433 -14.413,15.8341 -1.2919,0.8327 -2.6557,0.847 -3.9334,0.0144 -9.3023,-6.0437 -15.2741792,-14.4416 -17.7863892,-25.2657 -0.37325,-1.6365 0.24404,-3.1007 1.66523,-4.0051 0.55987,-0.3589 1.10537,-0.7035 1.7083,-1.0911 0.22969,1.1341 0.44502,2.2251 0.71778,3.3018 1.3350592,5.3115 3.3735792,10.336 6.5460792,14.8292 1.9093,2.6989 4.1775,5.0388 6.9624,6.8476 1.4212,0.9187 2.7993,0.9187 4.2205,0 3.0147,-1.9524 5.4121,-4.5363 7.4218,-7.4936 0.6604,-0.9761 1.292,-1.9954 1.8519,-3.0577 z m 2.9572,-15.346 c -0.3732,2.0815 -0.847,4.1487 -1.4499,6.1872 -0.0718,0.2153 -0.1435,0.3015 -0.3876,0.3015 -1.4499,-0.0144 -2.8998,0 -4.3928,0 0.3015,-1.091 0.5742,-2.139 0.7609,-3.23 0.1579,-0.9475 -0.1292,-1.737 -0.9188,-2.2682 -2.2394,-1.5217 -4.4932,-3.0146 -6.7471,-4.4932 -0.7608,-0.5025 -1.5934,-0.5025 -2.3543,-0.0144 -2.2681,1.4786 -4.5363,2.9859 -6.7901,4.5076 -0.7608,0.5168 -1.0767,1.3064 -0.9187,2.2108 1.0048,5.5268 3.3878,10.3933 7.1203,14.5995 1.0049,1.1341 2.4835,1.1341 3.4883,0.0143 0.6891,-0.7751 1.3495,-1.5791 1.9524,-2.426 0.1436,-0.201 0.2871,-0.2728 0.5311,-0.2728 1.5935,0.0144 3.187,0 4.7948,0 0,0.0431 0.0143,0.0862 0,0.1149 -1.9093,3.2587 -4.2205,6.1728 -7.3357,8.3836 -0.3014,0.2153 -0.6316,0.4163 -0.9474,0.6172 -0.5025,0.3302 -1.0049,0.3159 -1.5074,0 -2.0241,-1.2632 -3.7611,-2.8567 -5.2684,-4.6942 -2.8711,-3.4597 -4.8378,-7.4218 -6.2877,-11.6423 -0.90442,-2.5983 -1.55041,-5.2685 -2.0385,-7.9673 -0.04307,-0.244 0.07178,-0.3158 0.22969,-0.4306 2.72751,-1.7371 5.45511,-3.4884 8.19701,-5.2254 1.7083,-1.0911 3.4309,-2.1821 5.1249,-3.27309 0.5742,-0.37324 1.1053,-0.37324 1.6796,0 4.3927,2.81369 8.7999,5.62739 13.207,8.42669 0.2153,0.1579 0.3015,0.2871 0.2584,0.5742 z m 0.0861,-2.8567 c -4.1487,-2.6415 -8.3118,-5.2972 -12.4605,-7.93862 -1.292,-0.83262 -2.5984,-0.81827 -3.8904,0 -4.1487,2.64142 -8.2831,5.28282 -12.4318,7.92422 -0.11485,0.0718 -0.22969,0.1436 -0.40195,0.2584 -0.08614,-0.8326 -0.17227,-1.6222 -0.244049,-2.3974 -0.04306,-0.4163 -0.04306,-0.8469 -0.08613,-1.2632 -0.07177,-0.6317 0.186619,-1.0767 0.717779,-1.4356 3.68935,-2.45478 7.37875,-4.9239203 11.06805,-7.3930703 0.4163,-0.27275 0.8326,-0.55986 1.2489,-0.83262 1.3495,-0.86132 2.7419,-0.89004 4.077,0 4.1487,2.7419 8.2688,5.5125103 12.4031,8.2830903 0.4738,0.3158 0.6891,0.7322 0.6604,1.292 -0.0718,1.2202 -0.1866,2.4261 -0.3445,3.6463 -0.158,0.0144 -0.2297,-0.0861 -0.3159,-0.1435 z m 5.2972,9.1588 c -0.0431,0.1292 -0.0861,0.1866 -0.2297,0.1866 -1.4786,0 -2.9716,0 -4.4789,0 0.5312,-1.8375 0.9762,-3.675 1.3207,-5.5556 0.2297,0.0718 0.4163,0.2297 0.603,0.3445 0.4163,0.2584 0.8326,0.5168 1.2345,0.7896 1.4356,0.9187 2.0385,2.584 1.5504,4.2349 z"
     fill="#333333"
     id="path2"
     style="fill:#ffffff;stroke-width:0.163687;filter:url(#filter839)" />
</svg>
