<?xml version="1.0" encoding="UTF-8" standalone="no"?>
<svg
   xmlns:dc="http://purl.org/dc/elements/1.1/"
   xmlns:cc="http://creativecommons.org/ns#"
   xmlns:rdf="http://www.w3.org/1999/02/22-rdf-syntax-ns#"
   xmlns:svg="http://www.w3.org/2000/svg"
   xmlns="http://www.w3.org/2000/svg"
   xmlns:sodipodi="http://sodipodi.sourceforge.net/DTD/sodipodi-0.dtd"
   xmlns:inkscape="http://www.inkscape.org/namespaces/inkscape"
   width="51"
   height="59"
   viewBox="0 0 51 59"
   fill="none"
   version="1.1"
   id="svg4"
   sodipodi:docname="logo_white.svg"
   inkscape:version="1.0 (4035a4fb49, 2020-05-01)">
  <metadata
     id="metadata10">
    <rdf:RDF>
      <cc:Work
         rdf:about="">
        <dc:format>image/svg+xml</dc:format>
        <dc:type
           rdf:resource="http://purl.org/dc/dcmitype/StillImage" />
        <dc:title />
      </cc:Work>
    </rdf:RDF>
  </metadata>
  <defs
     id="defs8" />
  <sodipodi:namedview
     inkscape:bbox-nodes="true"
     inkscape:snap-bbox="true"
     inkscape:snap-page="true"
     inkscape:document-rotation="0"
     pagecolor="#ffffff"
     bordercolor="#666666"
     borderopacity="1"
     objecttolerance="10"
     gridtolerance="10"
     guidetolerance="10"
     inkscape:pageopacity="0"
     inkscape:pageshadow="2"
     inkscape:window-width="1920"
     inkscape:window-height="1058"
     id="namedview6"
     showgrid="false"
     inkscape:zoom="11.120253"
     inkscape:cx="45.915285"
     inkscape:cy="43.340413"
     inkscape:window-x="1912"
     inkscape:window-y="-8"
     inkscape:window-maximized="1"
     inkscape:current-layer="svg4" />
  <path
     d="m 47.551579,21.025508 c -0.833338,-0.449195 -1.59992,-0.994596 -2.416539,-1.475747 -0.200033,-0.1123 -0.266673,-0.224597 -0.233352,-0.449194 0.266672,-1.748392 0.466588,-3.496894 0.549946,-5.245287 0.06663,-1.411608 -0.500026,-2.550459 -1.716596,-3.336514 -4.88323,-3.1600337 -9.749741,-6.3200558 -14.68289,-9.4159302 -2.333299,-1.45971092 -4.833194,-1.47575004 -7.149772,-0.016039 -4.94987,3.0958678 -9.8497,6.2879818 -14.7328592,9.4640612 -1.1666247,0.753963 -1.7332777,1.876724 -1.6832752,3.240284 0.066662,1.78046 0.2833324,3.561033 0.5499816,5.325516 0.033331,0.256665 -0.033331,0.384943 -0.2499894,0.513333 C 4.9362603,20.14321 4.0862866,20.672632 3.2363131,21.185855 0.63638996,22.789991 -0.49689837,25.420679 0.20307321,28.324011 3.2863157,40.948143 10.536115,50.765037 21.785698,57.855146 c 2.416655,1.523797 4.966587,1.523797 7.399844,0.01597 8.183026,-5.06885 14.366181,-11.822065 18.416073,-20.371718 0.09995,-0.208619 0.266673,-0.385056 0.299993,-0.625631 0.116677,-0.769998 -0.516743,-1.395518 -1.45004,-1.395518 -5.649812,0 -11.299621,0 -16.949433,0 -0.583265,0 -0.999935,0.208508 -1.333247,0.67368 -0.716661,1.042642 -1.533278,2.021148 -2.383333,2.951493 -0.333312,0.368964 -0.333312,0.368964 -0.666624,0 -3.883178,-4.266894 -6.383073,-9.175284 -7.499684,-14.757467 -0.05004,-0.240687 -1.17e-4,-0.368965 0.216633,-0.497354 2.449858,-1.555864 4.899833,-3.127929 7.349689,-4.699884 0.183433,-0.1123 0.316711,-0.144368 0.516744,-0.01608 2.449859,1.588045 4.916432,3.160111 7.383008,4.715974 0.183316,0.128389 0.250072,0.224598 0.200033,0.465172 -0.299991,1.523908 -0.716661,2.999654 -1.233287,4.459422 -0.36663,1.058623 0.166714,1.764483 1.316645,1.764483 2.616571,0 5.216426,0 7.833112,0 2.649891,0 5.299781,0 7.949673,0 0.700058,0 1.11661,-0.320806 1.299927,-0.962526 0.100057,-0.336785 0.166713,-0.673679 0.26667,-0.994484 0.950015,-3.288388 -0.599983,-6.143562 -3.166515,-7.55517 z m -8.866368,17.067349 c 0.08336,-0.144368 0.166597,-0.256665 0.38335,-0.256665 1.849872,0.01608 3.716463,0 5.583055,0 0.01671,0.176437 -0.06664,0.256665 -0.116561,0.352874 -3.899896,7.362755 -9.516388,13.233672 -16.732913,17.69298 -1.499846,0.930458 -3.083161,0.946437 -4.566521,0.01608 C 12.436025,49.144922 5.5029132,39.761132 2.586338,27.666312 2.1530099,25.83769 2.8696588,24.201596 4.5196034,23.191023 5.1695899,22.789991 5.8028935,22.404934 6.502871,21.971831 c 0.2666608,1.267241 0.5166503,2.48632 0.8333137,3.689424 1.5499505,5.935056 3.9165903,11.549417 7.5997353,16.570107 2.216621,3.015744 4.849909,5.630342 8.083068,7.65149 1.649954,1.026552 3.249874,1.026552 4.89983,0 3.499946,-2.181607 6.283231,-5.068849 8.616411,-8.373328 0.766698,-1.090691 1.49996,-2.229656 2.149982,-3.416667 z m 3.433191,-17.147578 c -0.433271,2.325862 -0.983333,4.635746 -1.683275,6.91356 -0.08336,0.240575 -0.1666,0.336895 -0.449989,0.336895 -1.683276,-0.01608 -3.366552,0 -5.099865,0 0.35003,-1.21908 0.666623,-2.390113 0.883375,-3.609192 0.183315,-1.058736 -0.149996,-1.94092 -1.06669,-2.534482 -2.599854,-1.700344 -5.216424,-3.368505 -7.833111,-5.02069 -0.88326,-0.561491 -1.849875,-0.561491 -2.733249,-0.01608 -2.633172,1.652184 -5.266462,3.336437 -7.883033,5.03678 -0.883259,0.577471 -1.250006,1.459768 -1.066574,2.470342 1.166531,6.175631 3.9331,11.613446 8.266383,16.313443 1.166648,1.26724 2.883243,1.26724 4.049775,0.01596 0.800017,-0.866093 1.566716,-1.764481 2.266658,-2.710804 0.166714,-0.224596 0.333312,-0.304826 0.616586,-0.304826 1.849989,0.01608 3.699978,0 5.56657,0 0,0.04814 0.01659,0.09633 0,0.128388 -2.21662,3.641263 -4.899831,6.89747 -8.516452,9.367812 -0.349914,0.240576 -0.733262,0.465172 -1.099894,0.689658 -0.583383,0.368964 -1.166647,0.352986 -1.750032,0 C 22.235687,46.61055 20.219101,44.829977 18.469184,42.77676 15.135952,38.910898 12.852694,34.483657 11.169418,29.767683 10.119423,26.86435 9.3694536,23.880675 8.8028013,20.865044 8.7527923,20.5924 8.8861243,20.51217 9.0694622,20.383893 c 3.1665298,-1.941032 6.3331628,-3.897928 9.5163998,-5.838847 1.983267,-1.219193 3.983137,-2.438275 5.949801,-3.657344 0.666625,-0.417057 1.283212,-0.417057 1.949948,0 5.09975,3.144009 10.216332,6.288031 15.3328,9.415961 0.249953,0.176439 0.350027,0.320806 0.299991,0.641611 z m 0.09997,-3.192069 c -4.816473,-2.951604 -9.649668,-5.919078 -14.46614,-8.8705933 -1.49996,-0.9303675 -3.016639,-0.9143328 -4.516598,0 -4.81648,2.9515153 -9.616352,5.9030093 -14.4328263,8.8545003 -0.1333354,0.08023 -0.266661,0.160459 -0.4666483,0.288737 C 8.236163,17.09551 8.1361623,16.213213 8.0528283,15.347006 8.002841,14.881833 8.002841,14.400681 7.9528427,13.935509 7.8695304,13.22965 8.169499,12.732408 8.7861561,12.331374 13.069342,9.5884095 17.352588,6.8293988 21.635718,4.0703771 c 0.483307,-0.30477 0.966614,-0.625586 1.449922,-0.9303674 1.566716,-0.9624367 3.183236,-0.9945284 4.733232,0 4.816476,3.0637918 9.599746,6.1596643 14.399502,9.2555033 0.550062,0.352873 0.800018,0.818158 0.766698,1.443678 -0.08336,1.363448 -0.216636,2.710917 -0.39995,4.074365 -0.183431,0.01608 -0.266673,-0.09622 -0.366748,-0.160346 z m 6.149837,10.234019 c -0.05004,0.144366 -0.09996,0.208505 -0.266673,0.208505 -1.716595,0 -3.449908,0 -5.199825,0 0.616705,-2.053218 1.13333,-4.106434 1.53328,-6.207813 0.266674,0.08024 0.483308,0.256668 0.70006,0.384944 0.483308,0.288737 0.966615,0.57747 1.433205,0.882299 1.666674,1.026551 2.366616,2.887352 1.799953,4.732065 z"
     fill="#333333"
     id="path2"
     style="fill:#ffffff;stroke-width:0.999997" />
</svg>
