<?xml version="1.0" encoding="UTF-8" standalone="no"?>
<svg
   xmlns:dc="http://purl.org/dc/elements/1.1/"
   xmlns:cc="http://creativecommons.org/ns#"
   xmlns:rdf="http://www.w3.org/1999/02/22-rdf-syntax-ns#"
   xmlns:svg="http://www.w3.org/2000/svg"
   xmlns="http://www.w3.org/2000/svg"
   xmlns:sodipodi="http://sodipodi.sourceforge.net/DTD/sodipodi-0.dtd"
   xmlns:inkscape="http://www.inkscape.org/namespaces/inkscape"
   inkscape:version="1.0 (4035a4fb49, 2020-05-01)"
   sodipodi:docname="menu.svg"
   id="svg8"
   version="1.1"
   fill="none"
   viewBox="0 0 30 16"
   height="16"
   width="30">
  <metadata
     id="metadata14">
    <rdf:RDF>
      <cc:Work
         rdf:about="">
        <dc:format>image/svg+xml</dc:format>
        <dc:type
           rdf:resource="http://purl.org/dc/dcmitype/StillImage" />
      </cc:Work>
    </rdf:RDF>
  </metadata>
  <defs
     id="defs12" />
  <sodipodi:namedview
     inkscape:current-layer="svg8"
     inkscape:window-maximized="1"
     inkscape:window-y="-8"
     inkscape:window-x="-8"
     inkscape:cy="-2.4967552"
     inkscape:cx="-1.0627901"
     inkscape:zoom="10.205298"
     showgrid="false"
     id="namedview10"
     inkscape:window-height="1058"
     inkscape:window-width="1920"
     inkscape:pageshadow="2"
     inkscape:pageopacity="0"
     guidetolerance="10"
     gridtolerance="10"
     objecttolerance="10"
     borderopacity="1"
     bordercolor="#666666"
     pagecolor="#ffffff" />
  <path
     style="fill:#ffdb2d;fill-opacity:1"
     id="path2"
     fill="black"
     d="M0.937476 2.37501H29.0624C29.58 2.37501 29.9999 1.95498 29.9999 1.43754C29.9999 0.920016 29.5799 0.500061 29.0624 0.500061H0.937476C0.419955 0.500061 0 0.920094 0 1.43754C0 1.95498 0.420033 2.37501 0.937476 2.37501Z" />
  <path
     style="fill:#ffdb2d;fill-opacity:1"
     id="path4"
     fill="black"
     d="M29.0624 7.06256H0.937476C0.419955 7.06256 0 7.48259 0 8.00003C0 8.51747 0.420033 8.9375 0.937476 8.9375H29.0624C29.58 8.9375 29.9999 8.51747 29.9999 8.00003C29.9999 7.48259 29.58 7.06256 29.0624 7.06256Z" />
  <path
     style="fill:#ffdb2d;fill-opacity:1"
     d="M 29.0624,13.701269 H 0.937476 C 0.419955,13.701269 0,14.121299 0,14.638739 c 0,0.51744 0.420033,0.93747 0.937476,0.93747 H 29.0624 c 0.5176,0 0.9375,-0.42003 0.9375,-0.93747 0,-0.51744 -0.4199,-0.93747 -0.9375,-0.93747 z"
     fill="#000000"
     id="path839" />
</svg>
